<svg x="0px" y="0px"
	 viewBox="0 0 280 270" enable-background="new 0 0 280 270">
<g>
	<path fill="#EDFCFF" d="M22.4,214.3c-0.8,8.8-0.7,17.6,0.3,26.4c0.4,3.1,0.9,6.2,2.8,9c5.1,7.3,17.6,8.6,28.3,9.1
		c18.3,0.8,36.7,1.6,55,0.5c4.3-0.3,8.9-0.7,12.5-2.6c5.3-2.8,7.3-7.9,8.8-12.7c2.7-8.9,4.6-17.9,5.7-26.9c0.2-1.9,0.4-3.9-0.5-5.7
		c-1.1-2.2-3.6-3.7-6.3-4.8c-7.2-2.9-15.8-3.1-23.9-3.1c-16.8-0.1-33.5-0.1-50.3,0c-8,0-17.2-0.9-25,0.2
		C22.6,204.6,22.8,209.2,22.4,214.3z"/>
	<path fill="#DFF0F7" d="M55.5,232.7c1.6,0.8,2.8,2.2,4.1,3.3c4.6,4.1,11,6.1,17.2,5.3c5.7-0.7,10.9-3.7,16.3-5.8
		c5.4-2.1,11.7-3.2,16.8-0.4c1.7,0.9,3.1,2.3,4.8,3.1c4.1,2.1,9.2,1.3,13.3-0.6c0.7-0.3,1.6-0.7,2.3-0.3c0.4,0.3,0.6,0.8,0.8,1.2
		c2,6-1.8,12.8-7.2,16.2c-5.4,3.4-12,4-18.4,4.4c-22.8,1.2-45.6-0.9-68.3-3.3c-5.2-0.5-11.1-1.4-14.3-5.5c-3.9-5-7.7-24.9,3.7-20.6
		c5.4,2.1,6.5,6.1,13.4,5.1C45,234.2,50.3,230.1,55.5,232.7z"/>
	<path fill="#DFF0F7" d="M67.3,24.6c0.8,5.3,4.6,9.7,8.6,13.3c7.4,6.8,16,12.1,25.4,15.7c3,1.1,6.9,1.8,8.8-0.7c0.9-1.2,1-2.7,1-4.1
		c0.2-9.8-3.8-19.7-10.7-26.7C92.9,14.6,63.8,2.8,67.3,24.6z"/>
	<path fill="#DFF0F7" d="M67.8,110.9c-0.9,2.2-1.9,4.7-1.2,7c0.5,1.7,1.6,3,2.8,4.3c2.7,3,5.4,6,8.1,9c0.4,0.4,0.8,0.8,1.3,1
		c0.9,0.3,1.8-0.2,2.6-0.7c5-3.1,10.6-6.9,11.5-12.7c0.4-2.2,0-4.5-0.6-6.6c-1-3.6-2.5-7-4.1-10.4c-1.3-2.9-2.6-5.8-3.9-8.7
		c-0.7-1.5-1.4-3.1-2.7-4.2C75.6,84.2,69.5,106.8,67.8,110.9z"/>
	<path fill="#DFF0F7" d="M150.6,119.3c1.6-6.8,3.7-13.6,7.6-19.4c7.6-11.1,21.1-16.8,34.5-17.8c13.4-1,26.7,0.4,39.5,4
		c4.5,1.3,9,4.5,12.6,7.4c2.8,2.2,5,5.3,6.9,8.3c10.7,17.4,15.9,38.1,14.6,58.5c-0.4,5.5-2.6,12.4-8.1,12.8c-4.4,0.3-8.7-4-12.7-2.1
		c-0.7,19-1.4,38.1-2.2,57.1c-0.3,9.1-0.9,18.8-6.1,26.3c-5.3,7.5-17.1,11-23.6,4.7c-4.2-4-7.8-11.8-13.1-9.4
		c-2.1,1-3.1,3.4-4.5,5.3c-4.8,6.6-16.4,6.4-20.9-0.4c-2.4-3.6-2.8-8-3.2-12.3c-1.9-22-3.8-44-5.7-66.1c0,0-14.1,1.6-15.8,0.5
		c-4.5-2.9-3.8-8.5-4.1-13.4C145.7,148.6,147.3,133.7,150.6,119.3z"/>
	<path fill="#EDFCFF" d="M173.1,231.2c1.8,3.7,4.5,7.4,8.5,8.4c3.9,1,8.2-0.8,11-3.7s4.6-6.7,6.2-10.4c1-2.3,2.7-5.1,5.2-4.8
		c1.9,0.2,3.2,2.1,3.8,3.9c0.5,1.9,0.6,3.9,1.5,5.6c1.9,3.5,6.8,4.5,10.5,3c3.7-1.5,6.3-4.9,8.1-8.5c1.8-3.6,3-7.4,5-10.8
		c0.5-0.9,1.2-1.9,2.3-2.2c1.8-0.5,3.3,1.3,4.2,3c4.9,9.6,4.6,21.2,2.1,31.7c-0.9,3.8-2.1,7.6-4.5,10.7c-2.3,3.1-6,5.5-9.9,5.5
		c-9.1-0.1-14.9-12.3-24-11.8c-8,0.4-13.6,10.7-21.5,9.3c-5.4-1-8.2-6.9-9.8-12.1c-3.3-10.6-5.5-21.4-6.5-32.5
		c-0.2-2.1-0.1-3.9,1.3-5.5C171,212.4,170.8,226.3,173.1,231.2z"/>
	<circle fill="#FFFFFF" cx="206.6" cy="47.7" r="35.3"/>
	<ellipse fill="#DFF0F7" cx="206.8" cy="56.4" rx="34.2" ry="24.9"/>
	<path fill="#004C97" d="M212.3,6.6c-12.5-0.5-24.2,1-34,9.4c-9.8,8.5-15.3,20.7-14.4,33.7c1.9,25.8,26.7,46.6,52.5,41.2
		c26-5.4,43-33.4,32.6-58.4c-5-12-14.9-21.3-26.9-26.2c-10.3-4.1-27.9-4.6-30.5,9.6c-3.2,17.3,24,17.3,20.6,0
		c-0.6,2.1-1.1,4.2-1.7,6.3c0.7,0,1.3,0,2,0.1c1.4,0.9,4.4,0.7,6.1,1.3c3.4,1.2,6.2,3.3,8.7,5.9c5.2,5.2,8.6,12.4,8.5,19.8
		c-0.3,15.5-16.5,28.4-31.6,26.6c-15.1-1.8-27-17.5-25.3-32.5c1.7-15.3,17.4-31.8,33.4-31.1C215.8,12.4,215.8,6.8,212.3,6.6
		L212.3,6.6z"/>
	<path fill="#004C97" d="M28.8,147.5c6.8-10.1,2.2-25.7,4.5-37.3c1.4-6.6,4.1-12.4,9.1-17.1c2.8-2.7,10.3-8.1,14.6-8.1
		c4,0,5.9-5.9,2.1-7.8c-7.1-3.7-11.6-4.4-18.7,0c-6.8,4.3-12.5,10.7-15.8,18c-3.3,7.4-4.2,15.9-4,24c0.3,8.9,0,20.3,4.1,28.3
		C25.6,149.2,27.9,148.9,28.8,147.5L28.8,147.5z"/>
	<path fill="#004C97" d="M75,82.6c-6,8.1-9.5,17.9-13.2,27.3c-2.6,6.7-3.9,11.2,1,17c3.4,3.9,9.3,11.8,15.3,11.6
		c7.6-0.3,15.3-11.4,20.2-16.2c1.4-1.4,2.3-4,1.6-5.9c-4.1-10.4-8-27.1-18.1-33.1c-3.2-1.9-8.2,0.5-7.9,4.5
		c0.5,5.6,2.8,8.6,5.6,13.4c3.4,5.9,6.3,11.9,8.6,18.3c0.5-2,1-3.9,1.6-5.9c-4.6,4.1-9.4,9.7-14.9,12.6c1.7-0.2,3.3-0.4,5-0.7
		c-0.5-0.1-5-4.2-6.1-5.7c-0.3-0.4-1.9-1.8-2-2c-0.5-1.6,2.2-6.5,2.7-8.1c2.6-8.4,5.5-16.9,5.9-25.7C80.6,80.9,76.6,80.5,75,82.6
		L75,82.6z"/>
	<path fill="#004C97" d="M94.1,80.1c7.4,4.6,15.5,8.3,19.8,16.3c3.3,6.2,4.2,13.4,3.9,20.4c-0.4,8,10.4,8.2,12.9,1.7
		c5-12.8,12.1-24.4,21-34.8c5.4-6.3-3.7-15.6-9.2-9.2C132,86.7,124,100.1,118,115.1c4.3,0.6,8.6,1.2,12.9,1.7
		c1-20.1-11.5-45.6-35-43.3C92.5,73.9,91,78.1,94.1,80.1L94.1,80.1z"/>
	<path fill="#004C97" d="M10.9,157.9c10,3,21.6-0.2,31.9-1.1c10.6-0.9,21.3-1.3,32-1.4c22.2-0.2,44.4,0.7,66.6,2.1
		c10.5,0.7,10.4-15.6,0-16.3c-22.7-1.4-45.5-2.6-68.3-1.6c-10.7,0.5-21.4,1.3-32,2.6c-10.2,1.2-22.8,1.6-31.2,8
		C7.2,152.3,7.2,156.7,10.9,157.9L10.9,157.9z"/>
	<path fill="#004C97" d="M264.4,175.4c3.2-11.9,3.1-25.1,3.1-37.4c0-11.3-1.2-22.9-6-33.3c-4-8.8-10.6-16.7-19.3-21.1
		c-10.6-5.5-23.1-5.1-34.7-5.8c-22.6-1.3-44.3-1.9-58.1,19.3c-6.8,10.4-7.6,22.6-8.5,34.6c-1,14.2-2.3,28.4-2.9,42.6
		c-0.5,12,17.5,11.7,18.5,0c1.7-20.1,0.6-40.9,3.9-60.8c4-24,27.7-23.2,47.1-22.6c9.6,0.3,20.8-0.5,29.6,4.2
		c8.3,4.4,13.5,13.3,16.1,22.1c5.6,19,0.4,39,4.5,58.1C258.4,178.8,263.6,178.6,264.4,175.4L264.4,175.4z"/>
	<path fill="#004C97" d="M170.2,120.3c-6.8,15.6-6.2,36.1-7.1,52.9c-1,19.8-0.4,39.6,1.4,59.4c1.1,11.9,1.6,28.4,14.5,33.8
		c14.9,6.3,25.6-8,30.8-19.8c-4.1-0.5-8.3-1.1-12.4-1.6c3.9,10.7,9.8,23.2,22.5,24.6c15,1.7,25-12.1,27.1-25.4
		c2.9-17.8,1.4-37,1.5-55.1c0.1-19.9-0.1-39.9-0.5-59.8c-0.2-8.8-13.8-8.8-13.7,0c0.4,26,0.4,51.9,0,77.9
		c-0.2,11.9,1.2,25.5-1.8,37.1c-1.4,5.4-6.5,13.6-13.3,10.4c-4.6-2.1-7-9.1-8.7-13.4c-1.8-4.7-9.8-7.6-12.4-1.6
		c-2.1,4.8-6.8,17.4-14.3,14c-3.7-1.7-4.4-9-4.9-12.5c-1.9-13.2-2.2-26.8-2.5-40.1c-0.3-12.8-0.2-25.6,0.4-38.4
		c0.6-12.9,4-27.2,2.2-40C178.7,118.7,172.4,115.3,170.2,120.3L170.2,120.3z"/>
	<path fill="#004C97" d="M209.7,246.3c2.7-25.9,3.1-52.1,4.3-78.1c0.4-8.3-12.5-8.3-12.9,0c-1.1,26-3,52.1-2.6,78.1
		C198.7,253.6,209,253.3,209.7,246.3L209.7,246.3z"/>
	<path fill="#004C97" d="M17.3,187.7c-3,13.4-3.2,27.3-3.1,41c0.1,10.9-1.3,23.9,9.6,30.1c10.4,5.9,24.5,5,36,5.3
		c15.1,0.3,30.3,0.8,45.4,0.9c10.1,0.1,19.8,0.1,26.2-8.9c6.9-9.8,8.9-24.3,10.5-35.9c1.3-9.4,3.5-21.6-3.3-29.5
		c-6.8-7.9-19.2-7.3-28.7-8c-28.5-2.2-57-3.8-85.6-2.9c-11.5,0.4-11.4,18.5,0,17.8c23.1-1.4,46.4-2,69.6-1.9
		c5.8,0,11.6,0.2,17.4,0.5c5,0.3,14.7-0.7,18.1,3.5c3.1,3.9,0.9,14.2,0.4,18.8c-0.8,7.2-2,14.6-4.1,21.5
		c-2.2,7.2-4.5,11.6-12.5,12.3c-6.1,0.6-12.8-0.5-18.9-0.7c-13.8-0.4-27.7-0.6-41.5-1.1c-6.6-0.2-14.2-0.1-20.5-2.4
		c-7.1-2.7-5-11.4-5.2-17.7c-0.3-13.8,0.3-27.8-1.2-41.6C25.5,184.3,18.5,182.4,17.3,187.7L17.3,187.7z"/>
	<path fill="#004C97" d="M50,184.1c-0.3,3-1.5,5.8-2.2,8.7c-1.4,6.2-2,12.8-2.6,19.2c-0.8,7.6-1.5,15.3-1.9,22.9
		c-0.3,6.9-1.8,15.3-0.1,22.1c1.4,5.4,9.1,5.1,10.6,0c2-6.4,1-14.3,1.2-21c0.3-8,0.3-16,0.3-24c0-9.3-1.9-18.7-1.7-27.9
		C53.8,181.6,50.2,181.7,50,184.1L50,184.1z"/>
	<path fill="#004C97" d="M104.5,186.8c-5.6,9.5-5.2,21.8-6.1,32.5c-1.1,12.6-1.6,25.2-2.1,37.9c-0.3,8.6,13.1,8.6,13.4,0
		c0.4-12.1,1.1-24.1,1.5-36.2c0.4-10.9,2.8-23.1-1.2-33.5C109,185.2,105.9,184.5,104.5,186.8L104.5,186.8z"/>
	<path fill="#004C97" d="M63.7,172.6c5.6,1.7,11.8,2.2,17.6,2.8c2.7,0.3,5.5,0.5,8.3,0.7c1.9,0.1,7.2-0.1,8,0.3
		c-0.9-1.2-1.8-2.3-2.7-3.5c1.1,2.9-1.2,7.9-0.9,11.2c0.5,4.7,7.4,8,9.9,2.7c3.2-6.8,6.2-19.5-3.8-21.8c-5.3-1.2-11.9-0.5-17.4-0.8
		c-6.2-0.3-12.9-0.7-19,1C59.9,166.2,60.1,171.4,63.7,172.6L63.7,172.6z"/>
	<path fill="#004C97" d="M77.2,13c-23.5-13-43,21.9-40.2,41.4c3.3,23.2,26.5,38.4,49.2,33.4c21.8-4.9,34.7-28.5,29.6-49.6
		c-2.5-10.4-9.1-19.3-17.7-25.4C89.7,6.9,76.2,2.1,67.2,9.2c-10.6,8.4-6.9,23.2,0.1,32.4c8.5,11.2,21.2,17,35.1,17.7
		c9.2,0.5,9-13.4,0-14.2c-8.8-0.8-17.2-4.9-22.9-11.7c-1.4-1.7-3.5-4.2-4-6.4c-0.6-2.8,0.5-6.8,3.8-7.8c3.1-0.9,8.9,1.7,11.6,3.1
		c16.6,8.4,20.1,29.7,8,43.5c-10.7,12.2-31,12.2-41.5-0.3c-5.9-7-7.7-17.4-4.5-26.1c3-8.1,12.4-17.6,21.6-16.7
		C79.8,23.1,81.5,15.4,77.2,13L77.2,13z"/>
</g>
</svg>
