<?xml version="1.0" encoding="utf-8"?>
<!-- Generator: Adobe Illustrator 23.1.0, SVG Export Plug-In . SVG Version: 6.00 Build 0)  -->
<svg version="1.1" id="Layer_1" xmlns="http://www.w3.org/2000/svg" xmlns:xlink="http://www.w3.org/1999/xlink" x="0px" y="0px"
	 viewBox="0 0 84.8 82.2" style="enable-background:new 0 0 84.8 82.2;" xml:space="preserve">
<style type="text/css">
	.st0{fill:#FDFDFD;}
	.st1{fill:#393B43;}
	.st2{fill:#EDFCFF;}
	.st3{fill:#F9F8EA;}
</style>
<g>
	<path class="st0" d="M84.8,42.4c0,13.3-0.1,26.5,0.1,39.8c0,2.1-0.5,2.6-2.6,2.6c-26.5-0.1-53.1-0.1-79.6,0c-2.1,0-2.6-0.5-2.6-2.6
		C0.1,55.7,0.1,29.1,0,2.6C0,0.5,0.5,0,2.6,0c26.5,0.1,53.1,0.1,79.6,0c2.1,0,2.6,0.5,2.6,2.6C84.7,15.9,84.8,29.1,84.8,42.4z"/>
	<path class="st0" d="M8.5,80.1c8,0.3,14.3-1.3,19.3-6.1c2.5-2.4,4.7-2.6,7.9-2.2c14.7,1.6,28.2-1.5,39-12.2
		c11.1-11,11.3-26.5,0.7-38C59.1,3.7,25.3,3.8,8.9,21.6C-1.5,33-1.6,48.3,9.4,59.1c3.9,3.8,4.1,7.4,3.4,12
		C12.3,74.1,10.9,76.7,8.5,80.1z"/>
	<path class="st1" d="M8.5,80.1c2.4-3.4,3.8-6,4.2-9c0.7-4.5,0.5-8.2-3.4-12C-1.6,48.3-1.5,33,8.9,21.6c16.3-17.8,50.1-17.8,66.5,0
		c10.6,11.5,10.4,27-0.7,38c-10.8,10.7-24.3,13.9-39,12.2c-3.2-0.4-5.4-0.2-7.9,2.2C22.8,78.8,16.5,80.4,8.5,80.1z"/>
	<path class="st1" d="M13.3,77.8c5.5-0.6,10.2-2,13.4-5.8c2.6-3,5.2-3,8.7-2.5c13.6,1.8,26.2-1,36.6-10.4
		C83.9,48.6,84,32.8,72.8,21.8C57.2,6.5,27,6.6,11.5,22C0.8,32.6,0.3,47.6,11.2,57.8c4.1,3.9,4.5,7.7,3.9,12.3
		C14.8,72.6,14,74.9,13.3,77.8z"/>
	<path class="st2" d="M13.3,77.8c0.7-2.9,1.4-5.3,1.7-7.7c0.6-4.6,0.2-8.5-3.9-12.3C0.3,47.6,0.8,32.6,11.5,22
		C27,6.6,57.2,6.5,72.8,21.8c11.2,11,11.1,26.8-0.7,37.4c-10.4,9.4-23,12.2-36.6,10.4c-3.5-0.5-6.1-0.5-8.7,2.5
		C23.5,75.8,18.8,77.3,13.3,77.8z"/>
	<path class="st3" d="M14.9,43.4c0,0.2,0,0.4,0,0.5c18.2,0,36.4,0,54.6,0c0-0.2,0-0.4,0-0.5C51.3,43.4,33.1,43.4,14.9,43.4z"/>
	<path class="st3" d="M35.9,35.4c0,0.2,0,0.4,0,0.5c11.2,0,22.4,0,33.6,0c0-0.2,0-0.4,0-0.5C58.3,35.4,47.1,35.4,35.9,35.4z"/>
	<path class="st3" d="M44.5,28.1c0-0.2,0-0.4,0-0.5c-7.9,0-15.7,0-23.6,0c0,0.2,0,0.4,0,0.5C28.8,28.1,36.7,28.1,44.5,28.1z"/>
	<path class="st3" d="M20.9,51.4c0,0.2,0,0.4,0,0.5c6.5,0,13.1,0,19.6,0c0-0.2,0-0.4,0-0.5C34,51.4,27.5,51.4,20.9,51.4z"/>
	<path class="st3" d="M14.9,35.4c0,0.2,0.1,0.3,0.1,0.5c5.2,0,10.4,0,15.5,0c0-0.2,0-0.3,0-0.5C25.3,35.4,20.1,35.4,14.9,35.4z"/>
	<path class="st3" d="M60.6,52c-0.1-0.2-0.1-0.3-0.2-0.5c-4.8,0-9.6,0-14.5,0c0,0.2,0,0.3,0,0.5C50.8,52,55.7,52,60.6,52z"/>
	<path class="st1" d="M14.9,43.4c18.2,0,36.4,0,54.6,0c0,0.2,0,0.4,0,0.5c-18.2,0-36.4,0-54.6,0C14.9,43.7,14.9,43.6,14.9,43.4z"/>
	<path class="st1" d="M35.9,35.4c11.2,0,22.4,0,33.6,0c0,0.2,0,0.4,0,0.5c-11.2,0-22.4,0-33.6,0C35.9,35.7,35.9,35.6,35.9,35.4z"/>
	<path class="st1" d="M44.5,28.1c-7.9,0-15.7,0-23.6,0c0-0.2,0-0.4,0-0.5c7.9,0,15.7,0,23.6,0C44.5,27.7,44.5,27.9,44.5,28.1z"/>
	<path class="st1" d="M20.9,51.4c6.5,0,13.1,0,19.6,0c0,0.2,0,0.4,0,0.5c-6.5,0-13.1,0-19.6,0C20.9,51.7,20.9,51.5,20.9,51.4z"/>
	<path class="st1" d="M14.9,35.4c5.2,0,10.4,0,15.6,0c0,0.2,0,0.3,0,0.5c-5.2,0-10.4,0-15.5,0C15,35.7,14.9,35.6,14.9,35.4z"/>
	<path class="st1" d="M60.6,52c-4.9,0-9.7,0-14.6,0c0-0.2,0-0.3,0-0.5c4.8,0,9.6,0,14.5,0C60.5,51.7,60.5,51.9,60.6,52z"/>
</g>
</svg>
