<?xml version="1.0" encoding="utf-8"?>
<!-- Generator: Adobe Illustrator 23.1.0, SVG Export Plug-In . SVG Version: 6.00 Build 0)  -->
<svg version="1.1" id="Layer_1" xmlns="http://www.w3.org/2000/svg" xmlns:xlink="http://www.w3.org/1999/xlink" x="0px" y="0px"
	 viewBox="0 0 874 558" style="enable-background:new 0 0 874 558;" xml:space="preserve">
<style type="text/css">
	.st0{fill:#ABA69C;}
</style>
<path class="st0" d="M183.86,247.98c1.22,0.16,1.42-0.54,1.71-1.04c14.42-24.17,36.75-31.99,63.43-30.24
	c22.36,1.47,37.88,12.65,45.57,33.68c1.16,0.38,1.42-0.28,1.69-0.77c15.08-26.86,39.07-35.17,68.22-32.75
	c28.04,2.32,42.82,21.39,46,47.03c1.27,10.28,1.79,20.58,1.77,30.93c-0.07,35.03-0.09,70.05,0.06,105.08
	c0.02,3.84-0.71,5.45-4.87,5.04c-3.95-0.39-7.98-0.36-11.93-0.01c-3.93,0.35-4.68-1.2-4.67-4.82c0.12-40.76,0.1-81.52,0.03-122.27
	c-0.01-4.11-0.31-8.29-1.04-12.33c-3.69-20.44-14.14-29.12-35-29.96c-22.83-0.91-48.47,12.2-54.38,44.75
	c-1.42,7.85-2.28,15.72-2.27,23.7c0.02,31.84-0.09,63.69,0.12,95.53c0.03,4.54-1.34,5.77-5.6,5.4c-3.95-0.34-7.97-0.25-11.94-0.02
	c-3.11,0.19-4.29-0.78-4.08-3.99c0.25-3.96,0.06-7.96,0.06-11.94c0-35.98,0.03-71.96-0.03-107.95c-0.01-5.08-0.12-10.16-0.99-15.21
	c-3.52-20.35-13.93-29.46-34.74-30.24c-27.21-1.02-48.09,15.35-54.19,42.55c-1.95,8.72-2.93,17.56-2.93,26.5
	c0,31.84-0.06,63.68,0.08,95.53c0.02,3.68-0.83,5.06-4.69,4.77c-4.59-0.35-9.23-0.15-13.85-0.06c-2.01,0.04-2.99-0.6-2.79-2.71
	c0.09-0.95,0.01-1.91,0.01-2.86c0-57.48,0.04-114.95-0.09-172.43c-0.01-4.2,0.81-6.05,5.4-5.55c3.94,0.43,7.97,0.26,11.94,0.03
	c3.05-0.17,4.18,0.69,4.07,3.96C183.69,232.89,183.86,240.47,183.86,247.98z"/>
<path class="st0" d="M18.44,347.54c9.98,0,9.98,0,12.94,9.26c6.88,21.52,20.39,31.88,43.07,33.51c12.87,0.92,25.42,0.53,37.13-5.7
	c13.55-7.21,20.14-21.33,16.73-35.57c-1.59-6.64-5.7-11.17-11.33-14.67c-10.62-6.6-22.59-9.28-34.55-11.84
	c-13.05-2.79-26.36-4.54-38.79-9.68c-15.12-6.26-27.9-14.98-31.09-32.58c-5.29-29.22,9.08-52.6,37.7-60.56
	c19.48-5.42,39.09-4.67,58.29,1.74c21.22,7.09,32.74,22.59,37,44.04c1.77,8.9,1.75,8.92-7.29,8.9c-3.98-0.01-8.52,1.09-11.77-0.47
	c-3.3-1.58-2.36-6.78-3.49-10.32c-3.75-11.77-11.35-19.71-22.89-23.84c-14.67-5.25-29.62-5.91-44.49-1.18
	c-14.19,4.51-21.87,15.87-21.26,30.32c0.33,7.67,3.56,13.68,9.9,18.09c9.17,6.39,19.63,9.58,30.23,12.49
	c14.69,4.03,29.97,5.94,44.01,12.25c3.19,1.43,6.4,2.84,9.44,4.54c16.33,9.07,24.83,22.6,24.03,41.67
	c-0.81,19.11-10.11,32.69-26.53,41.75c-9.89,5.46-20.7,8.11-31.83,9.32c-17.41,1.89-34.69,1.81-50.88-6.19
	c-21.73-10.73-32.82-28.69-35.3-52.44c-0.22-2.15,0.24-2.93,2.39-2.86C12.7,347.61,15.57,347.54,18.44,347.54z"/>
<path class="st0" d="M854.1,330.77c0.24,2.47-0.61,4.67-1.69,6.84c-28.2,56.6-73.23,91.21-135.73,101.44
	c-79.07,12.94-157.66-29.49-190.95-101.86c-2.89-6.29-1.88-11.98,2.75-15.46c4.29-3.23,10.45-3.02,14.59,0.45
	c2.04,1.71,2.92,4.11,4.06,6.37c24.86,49.31,64.41,80.01,119,87.86c60.91,8.76,110.77-13.16,148.97-61.33
	c6.94-8.75,12.26-18.54,17.09-28.61c3.85-8.03,13.84-9.54,19.33-3.16C853.36,325.45,854.31,327.91,854.1,330.77z"/>
<path class="st0" d="M508.14,277.83c0,40.92-0.05,81.84,0.09,122.76c0.01,3.79-0.61,5.41-4.82,5.04c-4.74-0.42-9.55-0.2-14.33-0.05
	c-2.31,0.07-3.22-0.71-2.93-2.98c0.1-0.78,0.01-1.59,0.01-2.39c0-81.84,0.03-163.69-0.09-245.53c-0.01-3.95,0.57-5.77,5.06-5.29
	c4.41,0.47,8.92,0.29,13.37,0.04c2.99-0.17,3.76,0.79,3.71,3.72c-0.18,10.19-0.07,20.38-0.07,30.57
	C508.14,215.1,508.14,246.47,508.14,277.83z"/>
<path class="st0" d="M458.14,304.27c0,32.16-0.08,64.33,0.1,96.49c0.03,4.54-1.34,5.4-6.54,4.71c-3.49-0.47-7.03-0.54-10.52-0.08
	c-5.4,0.71-7.09,0.24-7.04-4.37c0.23-18.47,0.1-36.94,0.1-55.41c0-46.18,0.07-92.35-0.11-138.53c-0.02-4.5,1.23-5.54,5.8-5.06
	c4.33,0.46,8.69,0.37,13.02-0.03c4.12-0.37,5.32,0.65,5.29,4.83c-0.2,27.23-0.11,54.45-0.11,81.68
	C458.14,293.76,458.14,299.01,458.14,304.27z"/>
<path class="st0" d="M433.26,102.25c0-30.4,0.08-60.8-0.1-91.2c-0.02-4,0.99-5.22,4.98-4.94c5.07,0.36,10.2,0.31,15.28,0.01
	c3.62-0.21,4.87,0.71,4.8,4.62c-0.25,14.8-0.1,29.6-0.1,44.41c0,46-0.06,92,0.11,138c0.02,4.23-1.01,5.52-5.23,5.18
	c-4.9-0.4-9.89-0.36-14.8-0.01c-3.89,0.27-5.07-0.78-5.04-4.87C433.34,163.05,433.26,132.65,433.26,102.25z"/>
<path class="st0" d="M357.74,466.93c9.67-11.8,20.96-16.29,34.67-14.9c15.88,1.61,24.95,10.17,25.45,26.12
	c0.68,21.79,0.25,43.62,0.38,65.43c0.01,2.12-0.71,2.58-2.73,2.7c-12.94,0.78-12.93,0.84-12.93-12.03c0-15.76,0.09-31.52-0.04-47.29
	c-0.07-8.25-1.38-16.55-10.23-19.78c-9.05-3.3-17.9-1.78-25.32,5.01c-5.45,5-8.21,11.22-8.23,18.62
	c-0.04,17.04-0.17,34.07,0.03,51.1c0.04,3.61-0.89,4.46-4.44,4.4c-11.2-0.2-11.2-0.04-11.2-11.44c0-25.47,0.06-50.95-0.08-76.42
	c-0.02-3.4,0.57-4.63,4.33-4.54c10.13,0.24,10.13,0.03,10.33,9.88C357.75,464.38,357.74,464.95,357.74,466.93z"/>
<path class="st0" d="M239.51,513.5c-1.26,17.38-10.55,29.45-25.75,33.81c-18.01,5.17-34.25,0.12-44.22-13.73
	c-14.27-19.82-11.62-55.07,5.39-71.61c13-12.64,36.69-14.62,51.63-4.29c8.73,6.03,11.57,15.13,12.9,25c0.21,1.53-0.09,2.45-1.9,2.27
	c-0.79-0.08-1.61-0.11-2.39,0c-6.66,0.96-10.87-0.18-13.32-8.06c-4.93-15.86-28.76-14.76-36.74-3.85c-4.36,5.96-6.5,12.66-7.4,19.84
	c-1.16,9.24-1.04,18.39,2.29,27.26c3.82,10.16,10.43,15.23,20.11,15.33c11.59,0.12,18.11-4.19,22.43-14.82
	c2.9-7.15,2.9-7.15,10.81-7.15C235.39,513.5,237.44,513.5,239.51,513.5z"/>
<path class="st0" d="M204.91,181.47c0.46-1.72-0.23-2.51-2.33-2.13c-4.73,0.86-6.12-1.78-6.1-6.07c0.09-14-0.01-28,0.05-42
	c0.03-7.65-3.36-13.18-10.28-16.24c-11.74-5.19-23.69-5.49-35.6-0.53c-6.25,2.6-10.34,7.18-11.85,13.94
	c-1.71,7.67-1.75,7.46,6.12,7.74c3.48,0.12,5.04-0.87,5.62-4.34c0.5-3.03,2.32-5.48,4.98-7.26c6.05-4.05,19.29-3.81,24.98,0.76
	c3.87,3.11,4.67,7.35,3.49,12.05c-1.05,4.19-4.24,5.12-7.98,5.38c-2.53,0.18-5.05,0.53-7.55,0.94c-7.64,1.24-15.54,1.19-22.68,4.84
	c-9,4.61-13.02,12.64-11.65,23.42c1.07,8.43,7.78,15.77,16.45,17.73c13.12,2.96,24.02-1.41,33.84-10.8
	c0.68,1.93,1.11,3.64,1.88,5.18c2.52,5.1,8.62,6.88,15.9,5.09C207.23,187.91,204.2,184.07,204.91,181.47z M182.76,161.98
	c-0.06,2.59-1.08,4.94-2.47,7.1c-4.63,7.22-17.16,11.68-25.34,9.05c-5.71-1.84-8.74-5.62-8.81-11.01c-0.07-5.46,2.73-9.65,8.2-11.52
	c2.97-1.02,6.12-1.71,9.25-2.07c6.44-0.74,12.87-1.39,19.2-4.29C182.78,153.79,182.85,157.89,182.76,161.98z"/>
<path class="st0" d="M438.99,499.52c0-9.7-0.09-19.4,0.06-29.1c0.04-2.7-0.33-3.84-3.51-3.82c-9.79,0.06-9.7-0.11-9.12-9.96
	c0.12-2.13,0.78-2.68,2.78-2.65c3.47,0.05,8.96,1.09,9.98-0.55c1.74-2.79,0.75-7.32,0.77-11.12c0.05-8.75,0.15-17.5-0.05-26.24
	c-0.07-3.19,0.97-4.02,4.07-4.01c9.48,0.01,9.49-0.12,9.48,9.1c-0.02,9.7,0.09,19.4-0.17,29.1c-0.09,3.26,1.02,4.21,4,3.79
	c0.94-0.13,1.91-0.02,2.86-0.02c10.25,0,10.17,0,9.63,10.08c-0.11,2.12-0.72,2.73-2.75,2.63c-3.02-0.15-6.06,0.15-9.06-0.1
	c-2.67-0.22-3.12,0.9-3.11,3.25c0.08,18.76-0.01,37.53,0.07,56.29c0.03,6.33,2.35,8.51,9.46,8.14c4.2-0.22,5.69,0.65,5.44,5.17
	c-0.42,7.68-0.11,7.76-7.69,8.37c-2.53,0.2-5.11,0.21-7.63-0.04c-10.23-1.02-15.25-7.19-15.45-19.2
	C438.87,518.92,438.99,509.22,438.99,499.52z"/>
<path class="st0" d="M60.83,191.62c-3.81,0.1-7.58-0.02-11.36-0.81c-8.87-1.84-14.83-6.9-18.01-15.28c-1.18-3.1-3.39-7.29-1.21-9.35
	c1.81-1.71,6.33-0.52,9.65-0.69c2.06-0.1,1.66,1.61,1.97,2.65c2.71,9.1,7.33,12.61,16.93,12.9c5.29,0.16,10.46,0.01,15.24-2.77
	c4-2.32,5.79-5.63,5.54-10.25c-0.24-4.42-3.18-6.58-6.77-7.68c-7.27-2.21-14.68-3.94-22.02-5.96c-2.44-0.67-4.88-1.44-7.2-2.44
	c-12.37-5.35-15.93-17.42-8.55-28.71c10.35-15.81,42.12-15.07,51.67,1.21c0.08,0.14,0.17,0.27,0.25,0.41
	c1.65,3.11,3.96,7.25,2.1,9.71c-1.84,2.43-6.53,0.53-9.96,0.85c-1.77,0.17-1.4-1.31-1.76-2.25c-3.89-10.18-21.75-14.3-30-6.92
	c-4.63,4.14-3.94,10.47,1.61,14.08c3.81,2.48,8.27,3.21,12.57,4.27c5.7,1.41,11.43,2.63,16.97,4.64
	c13.25,4.79,17.87,17.89,10.49,29.97c-4.89,8.01-12.5,11.42-21.45,12.39C65.31,191.83,63.06,191.62,60.83,191.62z"/>
<path class="st0" d="M222.08,124.63c7.52-8.97,16.01-12.76,26.4-12.41c13.3,0.44,21.5,7.79,22.37,21.11
	c1.16,17.63,0.19,35.3,0.49,52.95c0.04,2.27-0.72,2.92-2.99,3.04c-10.05,0.52-10.13,0.6-10.03-9.24
	c0.15-13.81,0.95-27.63-0.04-41.44c-0.87-12.23-8.92-17.66-20.75-14.17c-8.59,2.54-14.3,9.76-14.46,19.1
	c-0.23,13.84-0.22,27.68-0.06,41.52c0.04,3.16-0.85,3.95-3.93,3.91c-8.82-0.11-8.82,0.04-8.82-8.96c0-20.52,0.08-41.05-0.08-61.57
	c-0.03-3.43,0.63-5.15,4.35-4.41c0.31,0.06,0.64,0.01,0.95,0.01c6.55,0,6.55,0,6.59,6.33C222.09,121.32,222.08,122.24,222.08,124.63
	z"/>
<path class="st0" d="M406.98,178.73c-6.95,9.78-15.79,13.06-26.61,12.14c-12.42-1.06-20.28-8.14-20.66-20.64
	c-0.54-17.82-0.21-35.66-0.34-53.49c-0.01-2.07,0.61-2.61,2.68-2.73c10.12-0.59,10.11-0.66,10.12,9.58
	c0.02,13.85-0.2,27.71,0.15,41.55c0.3,11.74,8.04,17.09,19.41,14.1c9.06-2.39,12.47-9.31,13.69-17.6
	c2.05-13.92,0.51-27.97,1.03-41.95c0.07-1.84-1.4-4.88,1.1-5.38c3.49-0.69,7.26-0.21,10.88,0.09c0.93,0.08,0.56,1.66,0.56,2.56
	c0.02,23.09-0.01,46.17,0.05,69.26c0.01,2.02-0.53,2.65-2.65,2.77C407.51,189.47,407.51,189.56,406.98,178.73z"/>
<path class="st0" d="M588.14,468.42c6.5-8.35,12.31-15.49,22.58-16.51c7.18-0.71,7.65-0.39,7.64,6.53c0,3.02,0.98,6.62-0.33,8.91
	c-1.49,2.6-5.39,0.62-8.22,0.98c-12.8,1.62-20.92,11.21-21.05,25.69c-0.14,15.9-0.12,31.81,0.04,47.72c0.03,3.33-0.46,4.69-4.3,4.63
	c-11.31-0.2-11.31,0-11.31-11.38c0-25.45,0.08-50.9-0.09-76.35c-0.02-3.71,0.87-4.82,4.68-4.73c10.29,0.24,10.29,0.05,10.36,10.31
	C588.15,465.26,588.14,466.3,588.14,468.42z"/>
<path class="st0" d="M103.21,151.87c0-7.63-0.2-15.27,0.09-22.89c0.14-3.71-0.86-5.16-4.69-4.78c-1.77,0.18-4.69,1.06-5.27-0.65
	c-0.87-2.58-0.72-5.71-0.23-8.47c0.36-2.04,2.78-1.12,4.09-0.93c5.04,0.74,6.64-1.23,6.09-6.15c-0.42-3.77,0.04-7.63-0.13-11.43
	c-0.11-2.49,0.34-3.58,3.27-3.61c9.54-0.09,9.54-0.24,9.54,9.2c0,0.64-0.02,1.27,0,1.91c0.1,3.15-0.87,7.05,0.64,9.23
	c1.49,2.16,5.62,0.62,8.58,0.7c2.01,0.06,2.67,0.62,2.8,2.71c0.48,7.56,0.55,7.86-7.01,7.45c-4.42-0.24-5.18,1.26-5.11,5.29
	c0.25,13.99,0.09,27.98,0.1,41.97c0.01,6.26,1.35,7.54,7.41,7.74c1.83,0.06,5.14-1.37,4.46,2.64c-0.5,2.96,2.69,7.99-3.94,8.02
	c-0.79,0-1.57,0.24-2.36,0.3c-12.8,1.11-17.98-3.44-18.29-16.33c-0.17-7.31-0.03-14.62-0.03-21.94
	C103.23,151.87,103.22,151.87,103.21,151.87z"/>
<path class="st0" d="M20.3,151.92c0,11.12-0.1,22.23,0.07,33.35c0.04,2.85-0.55,3.77-3.6,3.76c-9.51-0.04-9.51,0.12-9.51-9.31
	c0-20.49,0.08-40.97-0.08-61.46c-0.03-3.32,0.84-4.27,4.19-4.21c8.93,0.16,8.93-0.01,8.93,8.81C20.3,132.55,20.3,142.24,20.3,151.92
	z"/>
<path class="st0" d="M866.31,304.09c0.03,6.74-5.2,12.16-11.92,12.33c-6.77,0.17-12.61-5.48-12.63-12.23
	c-0.02-6.54,5.5-12.2,12.05-12.33C860.69,291.72,866.28,297.19,866.31,304.09z"/>
<path class="st0" d="M20.3,96.52c0,1.74,0.1,3.49-0.02,5.23c-0.19,2.63,1.23,6.77-0.66,7.56c-3.11,1.31-7.09,0.61-10.71,0.63
	c-1.9,0.01-1.65-1.56-1.65-2.79c-0.02-6.81,0.04-13.62-0.04-20.43c-0.02-1.99,0.58-3.03,2.7-2.77c0.16,0.02,0.32,0.01,0.48,0
	C20.3,83.43,20.3,83.43,20.3,96.52z"/>
<path class="st0" d="M605.35,314.11c-25.95,0-51.9-0.08-77.85,0.09c-3.78,0.02-4.83-1.01-4.73-4.76
	c0.7-26.44,6.72-51.01,24.82-71.33c13.63-15.31,30.88-23.82,51.25-25.38c21.42-1.64,41.59,2.1,58.62,16.38
	c15.18,12.73,23.11,29.62,27.17,48.58c2.24,10.44,3.1,21.03,3.28,31.72c0.06,3.68-0.85,4.83-4.7,4.8
	C657.26,314.02,631.3,314.11,605.35,314.11z M654.08,296.4c6.48,0,11.16-5.27,10.32-11.7c-2.47-18.99-9.77-35.73-27.32-45.35
	c-43.17-23.66-87.77,7.6-89.07,51.58c-0.12,4.16,0.73,5.68,5.33,5.6c17.82-0.3,35.65-0.12,53.47-0.12H654.08z"/>
<path class="st0" d="M524.89,505c-10.04,0-20.07,0.09-30.11-0.06c-2.96-0.04-3.9,0.67-3.43,3.78c0.55,3.62,0.98,7.23,2.18,10.7
	c3.74,10.81,10.65,16.31,21.22,16.9c11.86,0.66,21.01-4.36,25.4-14.72c1.53-3.6,3.42-4.88,7.01-4.29c0.47,0.08,0.95,0.01,1.43,0.01
	c9.85,0,10.02,0.27,5.75,9.22c-8.53,17.89-25.38,25.94-46.92,22.42c-16.27-2.66-29.87-17.8-32.2-35.8
	c-2.15-16.6-0.58-32.4,10.11-46.16c10.08-12.98,27.24-18.32,43.77-13.73c16.26,4.51,26.61,16.73,28.46,33.86
	c0.53,4.89,0.55,9.84,1,14.74c0.23,2.53-0.58,3.24-3.11,3.2C545.28,504.92,535.08,505,524.89,505z M539.24,492.51
	c2.02,0.02,3.33-0.1,2.95-2.73c-1.82-12.74-7.8-24.25-24.66-24.44c-13.3-0.15-25.06,10.92-25.9,24.25
	c-0.14,2.28,0.36,2.99,2.75,2.94c7.47-0.16,14.95-0.06,22.43-0.06C524.29,492.48,531.77,492.43,539.24,492.51z"/>
<path class="st0" d="M295,505c-9.87,0-19.75,0.22-29.61-0.11c-4.02-0.13-4.61,1.42-3.91,4.67c0.53,2.48,0.89,5.01,1.55,7.45
	c3.33,12.29,10.52,18.62,21.77,19.3c12.51,0.75,21.55-4.74,26.27-16.28c0.86-2.11,1.79-2.96,4.04-2.75c2.05,0.2,4.13,0.04,6.2,0.04
	c6.79,0.02,7.31-1.17,4.22,6.63c-7.98,20.15-23.73,26.88-42.76,25.66c-19.25-1.23-33.66-14.99-36.88-34.13
	c-2.79-16.59-1.76-32.68,8.46-46.97c16.82-23.5,54.92-21.98,68.5,2.71c5.41,9.83,5.49,20.7,5.83,31.5c0.1,3-2.03,2.25-3.61,2.26
	C315.06,505.02,305.03,505,295,505z M309.93,492.47c1.34,0,3.05,0.42,2.6-2.02c-1.23-6.6-2.52-13.19-7.5-18.2
	c-7.29-7.33-16.26-8.57-25.57-5.58c-10.59,3.4-15.78,11.58-17.45,22.37c-0.45,2.89,0.22,3.55,3,3.49
	c7.32-0.16,14.65-0.05,21.98-0.05C294.64,492.48,302.29,492.49,309.93,492.47z"/>
<path class="st0" d="M295.89,180.24c-0.76,9.32-0.75,9.22-9.47,8.75c-2.18-0.12-2.6-0.83-2.6-2.8c0.05-32.63,0.06-65.26-0.02-97.89
	c-0.01-2.39,0.84-2.8,3.01-2.86c9.33-0.29,9.33-0.37,9.33,9.01c0,9.01,0,18.02,0,28.13c6.36-6.72,13.08-10.34,21.46-10.52
	c15.59-0.33,26.93,7.94,30.75,23.07c3.28,13.01,2.5,25.78-2.96,38.21C336.22,194.25,308.3,197.9,295.89,180.24z M299.34,170.33
	c3.76,7.06,9.76,9.88,17.66,9.82c7.51-0.06,12.9-3.23,16.07-9.85c5.49-11.47,5.85-23.3,1.23-35.11
	c-2.92-7.45-8.46-11.86-16.78-11.84c-8.72,0.02-15.26,3.87-19.2,11.74c-2.48,4.97-2.94,10.34-2.69,15.67
	C295.38,157.66,296.1,164.25,299.34,170.33z"/>
</svg>
