<svg x="0px" y="0px"
	 viewBox="0 0 325 325" enable-background="new 0 0 325 325">
<g>
	<path fill="#DFF0F7" stroke="#004C97" stroke-miterlimit="10" d="M162.8,127.5c33.7,0,54.9-12.4,157.2,4.6
		c-51.5-41.3-94.8-53.4-111.8-53.4c-14.8,0-39.4,10.8-45.4,13.6c-6-2.8-30.6-13.6-45.4-13.6c-16.9,0-60.3,12-111.8,53.4
		C108,115.2,129.1,127.5,162.8,127.5z M74.6,108.1c-18.2,0.1,28.2-15.7,26.7-15.2c11.6-4.7,42.2-2.4,50.1,6
		c9.7,10.3-20.9,5.8-24.1,5.4C107.8,102.1,94.3,108.1,74.6,108.1C72,108.1,81.2,108.1,74.6,108.1z M308.5,136.8
		c-6.1,4.1-48.2,38.1-122.6,42.5c-19.6,0-23,1.4-23,1.4s-3.4-1.4-23-1.4C65.4,175,23.3,140.9,17.2,136.8c-6.1-4.1-11.5-4.7-11.5-4.7
		c12.2,18.3,20.6,34.3,58.5,68.2s98.6,29.8,98.6,29.8s60.7,4.1,98.6-29.8s46.3-49.9,58.5-68.2C320,132.1,314.6,132.8,308.5,136.8z
		 M237.4,188.9c-22.7,14.1-56.7,10.2-81.5,8.7c-17.3-1.1-34.9-0.1-51.9-4.2c-20.9-5-18.1-13.9,2.4-9c19.1,4.6,50.4,8.9,69.7,6.4
		c13.1-1.7,26.7-1.4,39.7-3.7C215.2,187.1,252.9,179.2,237.4,188.9C224.7,196.7,239.5,187.6,237.4,188.9z"/>
	
		<path fill-rule="evenodd" clip-rule="evenodd" fill="#FFFFFF" stroke="#004C97" stroke-width="5" stroke-linecap="round" stroke-linejoin="round" stroke-miterlimit="10" d="
		M119.8,124c-5.6,6.5-6.4,16.4-6.4,18.3v15.4v2.5c0,0,0.5,7.3,2.8,8c4,1.2,26.4,6.9,42.6,5.2c3.5-0.4,3.9-4.3,4-4.7c0,0,0,0,0,0
		c0,0,0,0,0,0v-26.3c0,0,0,0,0,0c-0.1-0.2-5.7-8.6-13.4-15.4 M287.9,137.5c1.1,1.1,2.9,2.5,4.3,2.4c2-0.1,5-6.8,6-8.6
		c0.3-0.4,0.4-1.3,0.5-2.4 M272.2,125.6c-1.1,1.7-2.1,3.1-2.6,3.9v0 M269.6,141.5c2.1,2.1,9,6.5,12,6.5c0.7,0,3.1-4.3,4.9-7.1
		c0.7-1,1.1-2.3,1.3-3.4c0.3-1.4,0.3-2.4,0.3-2.4v-7.6 M249.1,123.7c-1.3,2-2.4,3.7-3.1,4.5c-1.2,1.3-1.8,3.1-2.1,4.5v0
		 M244.7,149.3c2,2.7,5.6,4.7,6.4,4.8c1.1,0.2,5.9,0.6,10.8-0.6c4.5-1.2,7.3-10.4,7.7-12c0-0.2,0.1-0.3,0.1-0.3l-0.1-11.8v0l0-4.2
		 M220.4,123.3c-4.8,6.8-8.2,15.6-8.2,18.3v0.8v15.4c0,0,0.3,4.3,7.8,4.3c7.5,0,20.2-4.1,21.7-4.9c1.5-0.8,3-1.8,3-7.9
		c0-0.1,0-0.2,0-0.3c0-6.4,0-12.6,0-12.6s-0.3-1.5-0.9-3.8v0c-0.7-2.6-1.7-6.1-3.2-9.4 M205.8,124c5.6,6.5,6.4,16.4,6.4,18.3v15.4
		v2.5c0,0-0.5,7.3-2.8,8c-4,1.2-26.4,6.9-42.6,5.2c-3.5-0.4-3.9-4.2-4-4.7c0,0,0,0,0,0c0,0,0,0,0,0v-26.3c0,0,0,0,0,0
		c0.1-0.2,5.7-8.6,13.4-15.4 M85,123.4c-1.4,3.3-2.5,6.8-3.2,9.4v0c-0.6,2.2-0.9,3.8-0.9,3.8s0,6.2,0,12.6c0,0.1,0,0.2,0,0.3
		c0,6.1,1.6,7.1,3,7.9c1.5,0.8,14.2,4.9,21.7,4.9c7.5,0,7.8-4.3,7.8-4.3v-15.4v-0.8c0-2.7-3.4-11.4-8.2-18.3 M56.1,125.3l0,4.2v0
		L56,141.3c0,0,0,0.1,0.1,0.3c0.5,1.6,3.2,10.9,7.7,12c4.9,1.3,9.7,0.8,10.8,0.6c0.8-0.1,4.4-2.1,6.4-4.8 M81.8,132.7L81.8,132.7
		c-0.3-1.5-1-3.2-2.1-4.5c-0.7-0.8-1.8-2.4-3.1-4.5 M56.1,129.5L56.1,129.5c-0.5-0.8-1.5-2.2-2.6-3.9 M56,141.5
		c-2.1,2.1-9,6.5-12,6.5c-0.7,0-3.1-4.3-4.9-7.1c-0.7-1-1.1-2.3-1.3-3.4c-0.3-1.4-0.3-2.4-0.3-2.4v-7.6 M27,128.8
		c0.1,1.1,0.2,2,0.5,2.4c1,1.8,4,8.5,6,8.6c1.4,0.1,3.2-1.2,4.3-2.4"/>
	
		<path fill-rule="evenodd" clip-rule="evenodd" fill="none" stroke="#004C97" stroke-width="5" stroke-linecap="round" stroke-linejoin="round" stroke-miterlimit="10" d="
		M5.7,132.1c51.5-41.3,94.8-53.4,111.8-53.4c14.8,0,39.4,10.8,45.4,13.6c6-2.8,30.6-13.6,45.4-13.6c16.9,0,60.3,12,111.8,53.4
		c-102.3-16.9-123.4-4.6-157.2-4.6C129.1,127.5,108,115.2,5.7,132.1z M185.9,179.3c-19.6,0-23,1.4-23,1.4s-3.4-1.4-23-1.4
		C65.4,175,23.3,140.9,17.2,136.8c-6.1-4.1-11.5-4.7-11.5-4.7c12.2,18.3,20.6,34.3,58.5,68.2s98.6,29.8,98.6,29.8
		s60.7,4.1,98.6-29.8s46.3-49.9,58.5-68.2c0,0-5.4,0.7-11.5,4.7C302.4,140.9,260.3,175,185.9,179.3z"/>
	<path fill="none" stroke="#004C97" stroke-width="5" stroke-linecap="round" stroke-linejoin="round" stroke-miterlimit="10" d="
		M52.3,56h15.2 M61.2,50.4v14.4 M183.7,277.8h-9 M189.4,277.8h2.3 M221.4,251.6h2.3 M179.1,282.4V273 M105.9,26.6
		c-2,0-3.6,1.6-3.6,3.6c0,2,1.6,3.6,3.6,3.6c2,0,3.6-1.6,3.6-3.6C109.5,28.2,107.9,26.6,105.9,26.6z M96.1,270
		c-2.5,0-4.6,2.1-4.6,4.6c0,2.5,2.1,4.6,4.6,4.6c2.5,0,4.6-2.1,4.6-4.6C100.7,272.1,98.6,270,96.1,270z M135.1,251.5
		c-1.2,0-2.1,0.9-2.1,2.1s0.9,2.1,2.1,2.1c1.2,0,2.1-0.9,2.1-2.1S136.2,251.5,135.1,251.5z M201.5,55.6c9.7,0,12.4-3,12.4-13.7
		c0,10.5,3.2,13.7,12.4,13.7c-8.5,0-12.4,1.2-12.4,12.4C213.9,57.4,211.3,55.6,201.5,55.6z"/>
	<path fill="none" stroke="#DFF0F7" stroke-width="5" stroke-linecap="round" stroke-linejoin="round" stroke-miterlimit="10" d="
		M149.9,182.9c0-16.4-0.6-23.1-18.6-23.1c17.7,0,18.6-7.7,18.6-23.1c0,14.4-0.3,23.1,18.6,23.1C150.7,159.8,149.9,166.4,149.9,182.9
		z M30.7,230.5h9 M35.1,235v-9.4 M150.2,53c-3,0-5.4,2.4-5.4,5.4c0,3,2.4,5.4,5.4,5.4c3,0,5.4-2.4,5.4-5.4
		C155.6,55.5,153.2,53,150.2,53z M241.8,40.5h9 M246.2,45.1v-9.4 M262.7,223.5c-2.7,0-4.8,2.2-4.8,4.8c0,2.7,2.2,4.8,4.8,4.8
		c2.7,0,4.8-2.2,4.8-4.8C267.5,225.6,265.4,223.5,262.7,223.5z"/>
</g>
</svg>
