<svg x="0px" y="0px"
	 viewBox="0 0 325 325" enable-background="new 0 0 325 325">
<g>
	<g>
		<path fill="#FFFFFF" d="M266.2,125.4l0-1.4c-0.7-18.2-7.4-31.1-21.1-40.6c-11.3-7.6-27.2-11.8-44.9-11.8h-0.5
			c-14.3,0-29.2,2.9-40,7.7l-1.7,0.8l-1.7-0.7c-8.3-3.8-19.8-6.5-31.4-7.4c-0.2,0-0.3,0-0.5,0l-19.6,0.3c-0.2,0-0.3,0-0.5,0
			c-13.2,1.5-24.7,5.4-33.4,11.2c-13.7,9.5-20.4,22.4-21.1,40.7l0,1.7c0,0.8,0,1.7,0,2.5c0.2,25.9,6.1,36.5,12.9,48.8l1.1,2
			c7.7,13.3,15.2,28.7,15,57.1c0,39.1,7.2,59.5,13.2,69.6c7.1,11.8,10.6,15.2,20.5,15.2c9.5,0,15.1-8.3,15.8-16.5
			c0.5-4.6,0.5-10,0.6-15.7c0.2-13.2,0.5-29.7,5.5-46.5l0.1-0.4c2-6.5,4.4-14.6,9.1-21.6c2.8-4.3,8.9-8.8,15.5-8.8
			c5.2,0,9.6,2.9,13.2,8.7c4.4,7.2,7.1,14.9,9.3,22.1c5,16.8,7.1,36.2,5.8,52c-0.8,9.7,0.9,16.9,5.2,21.6c3.4,3.7,7.8,5,10.9,5h0
			c9.7,0,13.8-4,20.5-15.2c6-10.2,13.2-30.5,13.2-69.7c-0.2-28.4,7.3-43.7,15.1-57.2l1-1.9c6.8-12.3,12.7-22.9,12.9-48.9
			C266.2,127.3,266.2,126.4,266.2,125.4z"/>
		
			<path fill="none" stroke="#004C97" stroke-width="4.5" stroke-linecap="round" stroke-linejoin="round" stroke-miterlimit="10" d="
			M261,124.2c-0.7-18.4-7.9-28.9-18.9-36.5c-11.1-7.5-26.7-11-42.2-10.9c-14.4,0-28.5,3-38.1,7.3l-3.8,1.7l-3.8-1.7
			c-7.7-3.5-18.3-6.1-29.7-7l-19.6,0.3c-11.6,1.3-22.6,4.7-31,10.4c-11,7.6-18.2,18.2-18.9,36.5c0,1.5-0.1,2.8-0.1,4.1
			c0.2,25.9,6.1,35.2,13.3,48.3c7.4,12.8,16,29.3,15.7,59.7c0,35.3,5.9,56,12.5,67c6.6,11,8.8,12.6,16.1,12.6
			c7.6,0,10.3-7.7,10.6-11.8c1.5-14.9-1.1-38.3,6.3-63.2c2.1-6.9,4.7-15.5,9.9-23.3c7-10.5,25.8-18.7,37.4,0
			c4.9,8,7.8,16.4,9.9,23.3c5.6,19,7.3,38.8,6,53.9c-1.8,21.1,10.5,21,10.9,21c6.6,0,9.4-1.6,16-12.6c6.5-11,12.5-31.7,12.5-67
			c-0.2-30.5,8.3-46.9,15.7-59.7c7.2-13.1,13.1-22.4,13.3-48.3C261,127,261,125.6,261,124.2z"/>
		
			<line fill="none" stroke="#295182" stroke-width="4.5" stroke-linecap="round" stroke-linejoin="round" stroke-miterlimit="10" x1="158" y1="85.7" x2="184.2" y2="99.7"/>
		
			<path fill="#EDFCFF" stroke="#0178D1" stroke-width="4.5" stroke-linecap="round" stroke-linejoin="round" stroke-miterlimit="10" d="
			M283.7,100.2c0-39.8,31.3-39.8,31.3-39.8c-31.3,0-31.3-39.8-31.3-39.8s0,39.8-31.3,39.8C252.5,60.4,283.7,60.4,283.7,100.2z"/>
		
			<path fill="#EDFCFF" stroke="#0178D1" stroke-width="4.5" stroke-linecap="round" stroke-linejoin="round" stroke-miterlimit="10" d="
			M124.4,188.7c0-39,30.6-39,30.6-39c-30.6,0-30.6-39-30.6-39s0,39-30.6,39C93.8,149.7,124.4,149.7,124.4,188.7z"/>
		
			<path fill="#EDFCFF" stroke="#0178D1" stroke-width="4.5" stroke-linecap="round" stroke-linejoin="round" stroke-miterlimit="10" d="
			M41.5,87.3c0-27.6,21.7-27.6,21.7-27.6c-21.7,0-21.7-27.6-21.7-27.6s0,27.6-21.6,27.6C19.8,59.7,41.5,59.7,41.5,87.3z"/>
	</g>
	<path fill="none" stroke="#0178D1" stroke-width="4" stroke-linecap="round" stroke-miterlimit="10" d="M218.7,106.5
		c8.7,7.9,11.1,19.9,10.4,31.2"/>
</g>
</svg>
