<svg x="0px" y="0px"
	 viewBox="0 0 280 324" enable-background="new 0 0 280 324">
<g>
	<g>
		<path fill="#EDFCFF" stroke="#004C97" stroke-width="5.1" stroke-miterlimit="10" d="M130.5,33.6c-4.9-6.2-12.2-9.9-20.2-9.9
			c-9.9,0-18.7,5.6-23.2,14.5l-1,2H64.1v34.1h48.8C114.9,59.1,121.2,45.1,130.5,33.6z"/>
		<path fill="#EDFCFF" d="M194.8,168.2c-45.6,0-82.7-37.1-82.7-82.7c0-1.4,0-2.7,0.1-4.1H57V56.7H10.2v248.7h197.5
			c10.9,0,19.8-8.9,19.8-19.8V161.5C217.5,165.8,206.4,168.2,194.8,168.2z"/>
	</g>
	<g>
		<path fill="none" stroke="#004C97" stroke-width="5.1" stroke-miterlimit="10" d="M136.7,36.7c-4.8-9.7-14.7-16.5-26.4-16.5
			c-11.6,0-21.5,6.8-26.4,16.5H60.5v41.3h55.1"/>
		<path fill="none" stroke="#004C97" stroke-width="5.1" stroke-miterlimit="10" d="M60.5,53.2H6.6V309h201.1
			c12.8,0,23.4-10.5,23.4-23.4V151.2"/>
		<polyline fill="none" stroke="#004C97" stroke-width="5.1" stroke-miterlimit="10" points="44.2,164.2 54.2,178.6 79.5,147.7 		
			"/>
		<polyline fill="none" stroke="#004C97" stroke-width="5.1" stroke-miterlimit="10" points="44.2,209.6 54.2,224 79.5,193.1 		"/>
		<polyline fill="none" stroke="#004C97" stroke-width="5.1" stroke-miterlimit="10" points="44.2,255 54.2,269.4 79.5,238.5 		"/>
		<line fill="none" stroke="#004C97" stroke-width="5.1" stroke-miterlimit="10" x1="100.7" y1="178.6" x2="164.5" y2="178.6"/>
		<line fill="none" stroke="#004C97" stroke-width="5.1" stroke-miterlimit="10" x1="100.7" y1="219.9" x2="195.6" y2="219.9"/>
		<line fill="none" stroke="#004C97" stroke-width="5.1" stroke-miterlimit="10" x1="100.7" y1="261.2" x2="195.6" y2="261.2"/>
		<path fill="#EDFCFF" stroke="#004C97" stroke-width="5.1" stroke-miterlimit="10" d="M273.9,85.5c0,43.7-35.4,79.1-79.1,79.1
			c-43.7,0-79.1-35.4-79.1-79.1c0-43.7,35.4-79.1,79.1-79.1C238.5,6.4,273.9,41.9,273.9,85.5z"/>
		
			<path fill="#FFFFFF" stroke="#004C97" stroke-width="5.1" stroke-linecap="round" stroke-linejoin="round" stroke-miterlimit="10" d="
			M234.9,59.5c-0.3-7.2-3.1-11.3-7.3-14.2c-4.3-2.9-10.4-4.3-16.5-4.3c-5.6,0-11.1,1.2-14.8,2.8l-1.5,0.7l-1.5-0.7
			c-3-1.4-7.2-2.4-11.6-2.7l-7.6,0.1c-4.5,0.5-8.8,1.8-12.1,4c-4.3,3-7.1,7.1-7.4,14.2c0,0.6,0,1.1,0,1.6
			c0.1,10.1,2.4,13.7,5.2,18.8c2.9,5,6.2,11.4,6.1,23.2c0,13.8,2.3,21.8,4.9,26.1c2.6,4.3,3.4,4.9,6.3,4.9c3,0,4-3,4.1-4.6
			c0.6-5.8-0.4-14.9,2.5-24.6c0.8-2.7,1.8-6,3.8-9.1c2.7-4.1,10.1-7.3,14.6,0c1.9,3.1,3,6.4,3.8,9.1c2.2,7.4,2.8,15.1,2.3,21
			c-0.7,8.2,4.1,8.2,4.3,8.2c2.5,0,3.7-0.6,6.2-4.9c2.5-4.3,4.9-12.3,4.8-26.1c-0.1-11.9,3.2-18.3,6.1-23.3
			c2.8-5.1,5.1-8.7,5.2-18.8C234.9,60.6,234.9,60,234.9,59.5z"/>
		
			<line fill="none" stroke="#004C97" stroke-width="5.1" stroke-linecap="round" stroke-linejoin="round" stroke-miterlimit="10" x1="194.8" y1="44.5" x2="205" y2="49.9"/>
	</g>
</g>
</svg>
